HIERARCHY
ROOT Hips
{
	OFFSET 34.496513 44.105156 -20.748993
	CHANNELS 6 Xposition Yposition Zposition Xrotation Yrotation Zrotation
	JOINT Chest
	{
		OFFSET -1.209934 13.587955 0.240406
		CHANNELS 3 Xrotation Yrotation Zrotation
		JOINT Chest2
		{
			OFFSET -2.056225 21.326931 -0.023258
			CHANNELS 3 Xrotation Yrotation Zrotation
			JOINT Chest3
			{
				OFFSET 2.017277 14.693886 -1.685328
				CHANNELS 3 Xrotation Yrotation Zrotation
				JOINT Neck
				{
					OFFSET 2.411659 17.094429 0.761805
					CHANNELS 3 Xrotation Yrotation Zrotation
					JOINT Head
					{
						OFFSET -0.882050 10.441559 -0.153305
						CHANNELS 3 Xrotation Yrotation Zrotation
						End Site
						{
							OFFSET -0.809341 10.447380 -0.158031
						}
					}
				}
				JOINT LeftCollar
				{
					OFFSET 0.127518 13.144455 5.386215
					CHANNELS 3 Xrotation Yrotation Zrotation
					JOINT LeftUpArm
					{
						OFFSET 6.511890 4.076241 15.794903
						CHANNELS 3 Xrotation Yrotation Zrotation
						JOINT LeftLowArm
						{
							OFFSET -25.992702 18.119820 11.652435
							CHANNELS 3 Xrotation Yrotation Zrotation
							JOINT LeftHand
							{
								OFFSET -10.225845 25.404099 -12.288670
								CHANNELS 3 Xrotation Yrotation Zrotation
								End Site
								{
									OFFSET -2.234915 5.552216 -2.685756
								}
							}
						}
					}
				}
				JOINT RightCollar
				{
					OFFSET -1.956480 13.800842 -2.741835
					CHANNELS 3 Xrotation Yrotation Zrotation
					JOINT RightUpArm
					{
						OFFSET 0.167263 4.411301 -17.000256
						CHANNELS 3 Xrotation Yrotation Zrotation
						JOINT RightLowArm
						{
							OFFSET -29.053123 16.912170 -3.102985
							CHANNELS 3 Xrotation Yrotation Zrotation
							JOINT RightHand
							{
								OFFSET -11.727145 23.140274 15.098223
								CHANNELS 3 Xrotation Yrotation Zrotation
								End Site
								{
									OFFSET -2.563080 5.057541 3.299868
								}
							}
						}
					}
				}
			}
		}
	}
	JOINT LeftUpLeg
	{
		OFFSET 4.571568 0.249157 8.913912
		CHANNELS 3 Xrotation Yrotation Zrotation
		JOINT LeftLowLeg
		{
			OFFSET 34.721134 -20.238888 25.076263
			CHANNELS 3 Xrotation Yrotation Zrotation
			JOINT LeftFoot
			{
				OFFSET 44.083237 4.341145 -6.196062
				CHANNELS 3 Xrotation Yrotation Zrotation
				JOINT LeftToe
				{
					OFFSET 16.880493 -15.719333 5.245097
					CHANNELS 3 Xrotation Yrotation Zrotation
					End Site
					{
						OFFSET 2.637436 -22.886858 5.366058
					}
				}
			}
		}
	}
	JOINT RightUpLeg
	{
		OFFSET -4.571552 -0.249352 -8.913919
		CHANNELS 3 Xrotation Yrotation Zrotation
		JOINT RightLowLeg
		{
			OFFSET -44.742126 -15.555073 0.439421
			CHANNELS 3 Xrotation Yrotation Zrotation
			JOINT RightFoot
			{
				OFFSET 42.614109 -4.658102 -12.764027
				CHANNELS 3 Xrotation Yrotation Zrotation
				JOINT RightToe
				{
					OFFSET 17.802891 -15.559775 -0.712246
					CHANNELS 3 Xrotation Yrotation Zrotation
					End Site
					{
						OFFSET 3.996117 -23.063005 -3.418331
					}
				}
			}
		}
	}
}
MOTION
Frames: 16
Frame Time: 0.033333
35.318905 43.691212 -22.729826 -1.063170 -5.467073 2.414065 1.055382 0.389349 -5.074346 -2.160272 -0.011895 -2.944498 2.588112 -10.284808 -0.740742 5.138426 6.823219 -15.909194 0.000000 -0.000000 0.000002 2.787058 -1.751038 2.243951 -1.253497 -6.951063 4.245330 7.736153 5.736612 0.522736 0.000002 -0.000004 0.000001 4.183100 1.027652 0.409159 -2.574539 1.944379 6.527500 -0.931074 4.950373 -14.186367 0.000003 0.000005 -0.000005 5.021529 3.051245 0.170562 2.535544 0.989147 -4.707471 1.492980 1.255217 2.286734 0.000000 -0.000000 0.000000 -2.807204 2.167558 -1.296489 12.321288 2.354271 -3.047778 -17.217539 -0.792626 -3.666323 0.000000 -0.000002 -0.000001 
35.379551 43.631897 -22.914133 -1.791494 -5.234278 2.515491 2.757002 0.516881 -5.246484 -3.875672 -0.810877 -2.907521 3.471303 -9.832366 -1.108506 5.510347 7.176771 -17.241365 -0.000000 -0.000001 -0.000001 2.741576 -2.226176 2.404412 -0.982600 -6.354227 3.845476 7.914794 5.469169 0.323975 0.000003 -0.000003 0.000003 4.065541 1.130276 0.384169 -2.968945 2.382870 6.955893 -1.904086 4.434105 -13.980653 -0.000001 0.000001 0.000001 5.415148 3.148267 -0.305187 2.319808 0.952969 -4.262777 1.111836 1.374472 2.240505 0.000001 -0.000000 -0.000000 -2.132351 1.638778 -1.543224 12.674768 2.374435 -3.236143 -18.783024 -0.295039 -4.183810 0.000001 -0.000003 -0.000001 
35.438240 43.569641 -23.114214 -1.082632 -5.982520 2.721516 2.470139 0.522840 -5.590812 -4.184101 -0.918726 -2.932445 3.835631 -8.578074 -1.092306 5.598765 7.571121 -19.063826 0.000000 -0.000001 0.000001 3.148699 -2.863363 2.760268 -1.360163 -5.272215 3.253390 8.504248 5.888500 -1.071546 -0.000001 0.000001 0.000002 4.144400 1.861887 0.814440 -2.297816 3.222751 6.931234 -3.908091 3.048194 -14.509466 0.000006 0.000004 -0.000003 5.768202 3.514567 0.083567 2.646205 1.294348 -5.219149 0.927578 1.972277 3.099977 0.000001 -0.000001 -0.000000 -2.560443 1.963629 -1.580117 12.331755 2.359195 -3.156337 -19.150515 0.509448 -4.320100 -0.000001 -0.000001 0.000000 
35.490612 43.507587 -23.317287 -1.823499 -5.688303 2.663588 3.524934 0.575601 -5.596792 -3.885653 -0.808537 -2.888769 3.309443 -8.577017 -1.493388 6.245868 7.962210 -20.761226 -0.000001 -0.000001 -0.000002 3.926719 -3.303146 3.229957 -1.865889 -5.054454 3.308537 10.015093 7.195191 -3.630330 0.000004 -0.000006 0.000000 5.696883 2.684367 1.173396 -1.310854 3.628115 6.888093 -5.975462 0.496053 -14.440854 -0.000000 0.000000 0.000001 6.091317 3.654185 -0.322966 2.089293 1.082501 -4.454115 1.037150 1.608622 2.911037 0.000001 0.000000 0.000001 -2.049873 1.502069 -1.627630 12.601515 2.227426 -3.318667 -18.759446 -0.565333 -4.484186 -0.000001 -0.000001 0.000000 
35.530560 43.448128 -23.512194 -0.789058 -5.725173 2.757951 1.997697 0.514712 -5.616731 -2.672018 -0.202024 -3.136090 3.047877 -8.473283 -1.390832 6.142838 8.116233 -21.901835 -0.000002 -0.000000 0.000001 4.816438 -3.741307 3.309741 -2.254080 -5.687198 3.293143 10.937606 7.429232 -4.597404 0.000002 -0.000006 0.000000 6.041680 3.166832 1.275154 -1.301362 3.964672 7.084955 -6.796249 -0.412747 -12.794571 0.000006 -0.000001 0.000002 4.907162 3.104227 -0.089154 2.154675 1.612636 -4.680451 1.209136 1.664341 3.176856 0.000000 -0.000000 -0.000000 -2.782972 2.022295 -1.803414 10.148793 1.912306 -2.489675 -17.740335 -2.127452 -3.998518 0.000001 -0.000002 -0.000000 
35.577690 43.385750 -23.722719 -0.955945 -5.589588 2.689139 1.864696 0.529822 -5.836846 -1.267953 0.443933 -3.285025 2.507697 -9.012293 -1.234081 6.762687 8.517298 -23.236631 -0.000001 -0.000001 -0.000003 5.115626 -4.417398 3.721155 -2.482134 -5.894420 3.524378 10.919157 7.869811 -5.415437 -0.000001 -0.000003 0.000000 6.336235 3.850771 1.638006 -1.733699 3.587882 7.930279 -6.229676 -1.285991 -12.320608 0.000001 0.000003 -0.000000 4.762988 3.177194 -0.219595 1.514466 1.235810 -4.260764 1.164506 1.365538 2.891928 0.000001 -0.000000 -0.000000 -3.141055 2.130047 -1.773251 9.280361 1.626810 -2.340412 -17.488824 -3.315647 -4.119037 -0.000002 0.000000 0.000000 
35.628460 43.303478 -23.934925 -0.747966 -6.421717 3.009857 1.529728 0.542929 -6.262989 -0.924956 0.607084 -3.316480 2.329353 -8.222438 -1.239632 7.116061 8.884927 -24.605345 0.000000 -0.000000 0.000002 5.092001 -4.896418 3.950727 -1.947269 -5.634132 3.486196 11.483896 7.504388 -5.883520 0.000005 -0.000015 0.000003 6.717661 4.203853 1.525049 -1.935346 4.351023 8.436151 -7.052771 -1.395943 -11.613576 0.000003 0.000002 -0.000001 4.641411 3.082312 0.050458 2.287038 1.980493 -5.068975 1.039741 1.952338 3.698309 0.000000 -0.000000 0.000000 -4.100498 2.912416 -2.249157 10.665900 1.916336 -2.286793 -16.201122 -3.215446 -3.712060 -0.000001 -0.000001 0.000000 
35.670795 43.231941 -24.150702 -1.388197 -6.311462 2.851418 2.626915 0.581277 -6.139823 -1.143171 0.591011 -3.441636 2.291988 -8.661534 -1.290034 7.457778 9.306476 -25.639719 -0.000000 -0.000001 -0.000002 5.337511 -5.224389 4.203672 -1.960147 -4.729550 3.278381 11.465100 7.732829 -6.065410 0.000001 -0.000004 0.000002 7.414267 4.678301 1.590879 -2.006898 4.247760 8.785459 -7.623144 -1.756655 -11.864828 0.000003 0.000003 0.000000 4.952239 3.156750 0.003924 2.437501 1.913921 -4.914088 0.532086 2.289368 3.883306 0.000001 0.000000 -0.000001 -3.889364 2.827138 -2.137723 11.737350 2.101804 -2.657147 -17.080401 -1.894491 -4.117432 -0.000001 -0.000003 -0.000000 
35.717686 43.165806 -24.371510 -1.890449 -6.053676 2.758030 3.312991 0.594145 -6.072698 0.949894 1.571104 -3.752500 0.509717 -10.251071 -1.088795 7.005999 9.075793 -26.448207 -0.000000 -0.000000 -0.000001 5.630107 -4.953070 3.877514 -1.450519 -5.463094 3.739124 11.104168 7.228709 -5.727190 0.000007 -0.000005 0.000002 7.602830 4.707315 1.310628 -2.735090 4.758005 9.640966 -7.463031 -1.439883 -10.983011 0.000002 0.000000 -0.000000 5.279688 3.173802 -0.116271 2.221035 1.499876 -4.629015 0.513820 2.229965 3.804655 0.000001 -0.000000 -0.000000 -3.650866 2.672885 -1.895086 12.922709 2.243454 -3.202696 -17.694725 -0.768331 -4.389821 0.000000 -0.000001 -0.000001 
35.756989 43.099300 -24.599852 -1.588908 -6.819318 2.707195 3.401180 0.593495 -6.078865 1.079850 1.694349 -4.179071 0.256332 -9.887777 -0.911407 6.882810 9.043079 -27.470392 0.000000 -0.000000 0.000001 5.977489 -4.820483 3.661774 -1.269151 -5.943155 3.941802 10.846592 7.326788 -4.882257 0.000002 -0.000004 0.000002 7.914309 5.053149 1.308425 -3.410077 5.026688 10.102849 -7.347029 -1.597736 -10.509964 -0.000003 -0.000000 -0.000001 5.296829 3.386963 0.272916 2.656576 1.877533 -5.070826 0.304924 2.780383 4.259706 0.000001 -0.000000 0.000000 -4.164106 3.097870 -1.616880 12.052020 2.225789 -2.813580 -15.888202 -3.415828 -3.367249 -0.000000 -0.000003 -0.000001 
35.800430 43.022888 -24.838839 -1.568714 -6.778651 2.699929 3.372927 0.618875 -6.176016 1.679309 1.938328 -4.303393 -0.051292 -10.037134 -0.837927 7.287884 9.243998 -28.123973 -0.000001 -0.000001 0.000002 6.027535 -5.241246 3.606138 -0.881226 -6.836260 4.229613 10.894623 7.194217 -4.017070 0.000004 -0.000002 -0.000001 7.856914 5.236921 1.208393 -4.047725 5.556391 10.615064 -7.325099 -1.398176 -10.530692 0.000004 0.000000 0.000001 5.019060 3.331537 0.236368 2.445441 1.923784 -4.931018 0.436770 2.686356 4.174767 -0.000001 0.000000 0.000000 -4.668895 3.373154 -1.446458 12.195104 2.221909 -3.207560 -16.139684 -2.933645 -3.477850 0.000001 0.000000 -0.000001 
35.842350 42.950432 -25.082859 -1.806200 -6.131701 2.582746 4.114008 0.664817 -6.011136 1.325562 1.774225 -4.296714 0.510106 -10.150178 -0.902344 7.236790 9.349805 -29.014869 0.000002 -0.000000 -0.000001 6.341280 -5.497685 3.349957 -0.550127 -7.316689 4.237162 10.655062 6.797385 -2.733367 0.000004 -0.000004 0.000004 7.942494 5.565182 0.970707 -5.157656 5.777187 11.203443 -7.263617 -0.726365 -10.391439 0.000001 0.000002 -0.000000 4.884338 3.055720 0.026678 2.344179 1.401549 -4.324668 0.011964 2.914262 4.178420 0.000000 0.000000 0.000001 -4.748342 3.490364 -1.475149 10.401932 2.040592 -2.895422 -16.746801 -4.703325 -3.182035 -0.000002 -0.000001 -0.000001 
35.873566 42.875828 -25.328199 -1.467142 -6.601152 2.751860 4.155307 0.662449 -6.111159 1.636626 2.001534 -4.697186 0.097983 -10.308503 -0.719779 7.187559 9.561211 -30.046531 0.000001 0.000001 0.000003 6.519019 -5.789261 3.395296 -0.377975 -7.469053 4.137476 10.647415 6.426257 -2.143648 0.000002 -0.000008 0.000001 8.131814 5.892758 0.928498 -5.896951 5.883077 11.729648 -6.908000 0.017271 -9.996825 0.000002 0.000003 -0.000002 4.976810 3.147876 0.333438 2.617283 1.306877 -4.893948 0.498580 3.010386 4.571585 0.000003 -0.000000 -0.000000 -4.931165 3.649033 -1.514365 10.727071 2.145853 -3.024151 -17.833226 -4.366746 -3.363526 -0.000000 -0.000000 0.000000 
35.901546 42.804527 -25.573677 -1.420323 -6.247895 2.822307 4.086929 0.664461 -6.195087 1.805474 2.081028 -4.693616 0.165750 -10.255510 -0.804443 7.306429 9.648472 -30.424740 0.000000 0.000001 0.000004 6.816208 -5.883577 3.329536 -0.069392 -7.790665 4.285392 10.869064 6.369660 -1.436865 0.000000 -0.000003 0.000002 8.204562 5.815308 0.761105 -6.480616 6.009977 12.215179 -6.574254 0.645164 -9.891665 0.000003 0.000000 0.000001 4.653642 2.828146 0.185045 2.658064 1.489235 -4.716837 0.053348 3.318733 4.830659 0.000000 -0.000000 0.000000 -4.906406 3.650089 -1.582227 10.495929 2.121305 -2.779041 -15.414207 -5.045722 -2.555494 0.000001 -0.000002 -0.000002 
35.923500 42.738152 -25.815495 -1.853356 -6.121440 2.882887 5.084910 0.691520 -6.126607 1.273133 1.936215 -4.931559 0.441192 -10.360108 -0.691778 7.412394 9.696540 -31.375557 0.000000 -0.000000 0.000001 6.621691 -5.975258 3.455667 -0.464186 -7.885001 4.285845 11.087962 6.554635 -1.603249 0.000002 -0.000006 0.000000 8.317710 5.814478 0.792799 -5.869048 6.270185 11.995584 -7.100069 0.306705 -10.144205 0.000001 0.000001 0.000001 4.631525 2.666163 -0.018234 2.599183 1.629892 -4.453344 -0.096089 3.138572 4.604577 0.000003 0.000000 0.000001 -4.883532 3.666775 -1.677561 10.541078 2.077745 -2.799550 -14.289375 -5.342026 -2.245980 0.000000 -0.000001 0.000000 
35.930687 42.684841 -26.045673 -1.756071 -6.247963 3.009560 5.483300 0.716983 -5.972969 0.708745 1.746508 -5.271093 0.935419 -9.977431 -0.759703 6.874658 9.633324 -32.084786 0.000001 0.000000 0.000003 6.909775 -5.743744 3.323634 -0.633935 -8.714918 4.644586 11.044588 6.685794 -1.475109 0.000004 -0.000003 -0.000000 8.363602 5.844476 0.791044 -5.896536 6.321815 12.205067 -7.333196 -0.045597 -10.043676 -0.000000 -0.000001 0.000002 4.046717 2.325494 -0.059658 3.123583 2.670738 -4.685019 -0.479905 3.397189 4.760197 -0.000001 -0.000000 -0.000000 -4.974785 3.719111 -1.799093 10.905748 2.156420 -2.885253 -15.082533 -5.404245 -2.459434 -0.000002 -0.000003 -0.000001 
